<svg width="25" height="24" viewBox="0 0 25 24" fill="none" xmlns="http://www.w3.org/2000/svg">
<path d="M16.7929 9.29289L13.5 12.5858L13.5 3C13.5 2.44771 13.0523 2 12.5 2C11.9477 2 11.5 2.44771 11.5 3L11.5 12.5858L8.20711 9.29289C7.81658 8.90237 7.18342 8.90237 6.79289 9.29289C6.40237 9.68342 6.40237 10.3166 6.79289 10.7071L11.7929 15.7071C12.1834 16.0976 12.8166 16.0976 13.2071 15.7071L18.2071 10.7071C18.5976 10.3166 18.5976 9.68342 18.2071 9.29289C17.8166 8.90237 17.1834 8.90237 16.7929 9.29289Z" fill="#55E6A5"/>
<path d="M6.5 16C6.5 15.4477 6.05228 15 5.5 15C4.94772 15 4.5 15.4477 4.5 16V19C4.5 20.6569 5.84315 22 7.5 22H17.5C19.1569 22 20.5 20.6569 20.5 19V16C20.5 15.4477 20.0523 15 19.5 15C18.9477 15 18.5 15.4477 18.5 16V19C18.5 19.5523 18.0523 20 17.5 20H7.5C6.94772 20 6.5 19.5523 6.5 19V16Z" fill="#55E6A5"/>
</svg>
