<svg width="29" height="24" viewBox="0 0 29 24" fill="none" xmlns="http://www.w3.org/2000/svg">
<path d="M11.7168 16.2598C11.7168 17.4844 11.0781 19.4883 9.56641 19.4883C8.05469 19.4883 7.41602 17.4844 7.41602 16.2598C7.41602 15.0352 8.05469 13.0313 9.56641 13.0313C11.0781 13.0313 11.7168 15.0352 11.7168 16.2598V16.2598ZM28.9375 13.3008C28.9375 15.1699 28.75 17.1504 27.9121 18.8672C25.6914 23.3555 19.5859 23.25 15.2148 23.25C10.7734 23.25 4.30469 23.4082 1.99609 18.8672C1.14063 17.168 0.8125 15.1699 0.8125 13.3008C0.8125 10.8457 1.62695 8.52539 3.24414 6.64453C2.93945 5.71875 2.79297 4.74609 2.79297 3.78516C2.79297 2.52539 3.08008 1.89258 3.64844 0.75C6.30273 0.75 8.00195 1.27734 10.0234 2.85938C11.7227 2.45508 13.4687 2.27344 15.2207 2.27344C16.8027 2.27344 18.3965 2.44336 19.9316 2.8125C21.9238 1.24805 23.623 0.75 26.248 0.75C26.8223 1.89258 27.1035 2.52539 27.1035 3.78516C27.1035 4.74609 26.9512 5.70117 26.6523 6.60938C28.2637 8.50781 28.9375 10.8457 28.9375 13.3008V13.3008ZM25.1699 16.2598C25.1699 13.6875 23.6055 11.4199 20.8633 11.4199C19.7559 11.4199 18.6953 11.6191 17.582 11.7715C16.709 11.9063 15.8359 11.959 14.9395 11.959C14.0488 11.959 13.1758 11.9063 12.2969 11.7715C11.2012 11.6191 10.1289 11.4199 9.01562 11.4199C6.27344 11.4199 4.70898 13.6875 4.70898 16.2598C4.70898 21.4043 9.41992 22.1953 13.5215 22.1953H16.3457C20.4648 22.1953 25.1699 21.4102 25.1699 16.2598V16.2598ZM20.3301 13.0313C18.8184 13.0313 18.1797 15.0352 18.1797 16.2598C18.1797 17.4844 18.8184 19.4883 20.3301 19.4883C21.8418 19.4883 22.4805 17.4844 22.4805 16.2598C22.4805 15.0352 21.8418 13.0313 20.3301 13.0313Z" fill="white" fill-opacity="0.6"/>
</svg>
