<svg width="29" height="30" viewBox="0 0 29 30" fill="none" xmlns="http://www.w3.org/2000/svg">
<g clip-path="url(#clip0_16_14)">
<path d="M11.7168 19.2598C11.7168 20.4844 11.0781 22.4883 9.56641 22.4883C8.05469 22.4883 7.41602 20.4844 7.41602 19.2598C7.41602 18.0352 8.05469 16.0313 9.56641 16.0313C11.0781 16.0313 11.7168 18.0352 11.7168 19.2598ZM28.9375 16.3008C28.9375 18.1699 28.75 20.1504 27.9121 21.8672C25.6914 26.3555 19.5859 26.25 15.2148 26.25C10.7734 26.25 4.30469 26.4082 1.99609 21.8672C1.14063 20.168 0.8125 18.1699 0.8125 16.3008C0.8125 13.8457 1.62695 11.5254 3.24414 9.64453C2.93945 8.71875 2.79297 7.74609 2.79297 6.78516C2.79297 5.52539 3.08008 4.89258 3.64844 3.75C6.30273 3.75 8.00195 4.27734 10.0234 5.85938C11.7227 5.45508 13.4688 5.27344 15.2207 5.27344C16.8027 5.27344 18.3965 5.44336 19.9316 5.8125C21.9238 4.24805 23.623 3.75 26.248 3.75C26.8223 4.89258 27.1035 5.52539 27.1035 6.78516C27.1035 7.74609 26.9512 8.70117 26.6523 9.60938C28.2637 11.5078 28.9375 13.8457 28.9375 16.3008ZM25.1699 19.2598C25.1699 16.6875 23.6055 14.4199 20.8633 14.4199C19.7559 14.4199 18.6953 14.6191 17.582 14.7715C16.709 14.9063 15.8359 14.959 14.9395 14.959C14.0488 14.959 13.1758 14.9063 12.2969 14.7715C11.2012 14.6191 10.1289 14.4199 9.01562 14.4199C6.27344 14.4199 4.70898 16.6875 4.70898 19.2598C4.70898 24.4043 9.41992 25.1953 13.5215 25.1953H16.3457C20.4648 25.1953 25.1699 24.4102 25.1699 19.2598ZM20.3301 16.0313C18.8184 16.0313 18.1797 18.0352 18.1797 19.2598C18.1797 20.4844 18.8184 22.4883 20.3301 22.4883C21.8418 22.4883 22.4805 20.4844 22.4805 19.2598C22.4805 18.0352 21.8418 16.0313 20.3301 16.0313Z" fill="white" fill-opacity="0.6"/>
</g>
<defs>
<clipPath id="clip0_16_14">
<rect width="28.125" height="30" fill="white" transform="translate(0.8125)"/>
</clipPath>
</defs>
</svg>
