<svg width="28" height="30" viewBox="0 0 28 30" fill="none" xmlns="http://www.w3.org/2000/svg">
<g clip-path="url(#clip0_17_16)">
<path d="M6.81328 26.25H1.37109V8.72461H6.81328V26.25ZM4.08926 6.33399C2.34902 6.33399 0.9375 4.89258 0.9375 3.15235C0.9375 2.31645 1.26956 1.51479 1.86063 0.923716C2.4517 0.332647 3.25336 0.000587463 4.08926 0.000587463C4.92516 0.000587463 5.72682 0.332647 6.31789 0.923716C6.90896 1.51479 7.24102 2.31645 7.24102 3.15235C7.24102 4.89258 5.82891 6.33399 4.08926 6.33399ZM27.1816 26.25H21.7512V17.7188C21.7512 15.6855 21.7102 13.0781 18.9217 13.0781C16.0922 13.0781 15.6586 15.2871 15.6586 17.5723V26.25H10.2223V8.72461H15.4418V11.1152H15.518C16.2445 9.73828 18.0193 8.28516 20.6672 8.28516C26.175 8.28516 27.1875 11.9121 27.1875 16.623V26.25H27.1816Z" fill="white" fill-opacity="0.6"/>
</g>
<defs>
<clipPath id="clip0_17_16">
<rect width="26.25" height="30" fill="white" transform="translate(0.9375)"/>
</clipPath>
</defs>
</svg>
