<svg width="31" height="30" viewBox="0 0 31 30" fill="none" xmlns="http://www.w3.org/2000/svg">
<g clip-path="url(#clip0_17_18)">
<path d="M27.1037 8.88961C27.1228 9.1561 27.1228 9.42264 27.1228 9.68912C27.1228 17.8172 20.9363 27.1828 9.62912 27.1828C6.14561 27.1828 2.90959 26.1738 0.1875 24.4226C0.682441 24.4797 1.15828 24.4988 1.67227 24.4988C4.54658 24.4988 7.19256 23.528 9.30551 21.8719C6.60246 21.8147 4.33723 20.0445 3.55676 17.6079C3.9375 17.665 4.31818 17.703 4.71797 17.703C5.26998 17.703 5.82205 17.6269 6.33598 17.4937C3.51873 16.9226 1.40572 14.448 1.40572 11.4594V11.3833C2.22422 11.8402 3.17607 12.1257 4.18488 12.1637C2.52879 11.0596 1.44381 9.17514 1.44381 7.04315C1.44381 5.90104 1.74832 4.85408 2.28135 3.94037C5.30801 7.67133 9.85752 10.1078 14.959 10.3744C14.8638 9.91752 14.8067 9.44168 14.8067 8.96578C14.8067 5.57742 17.5478 2.81731 20.9552 2.81731C22.7255 2.81731 24.3244 3.55969 25.4476 4.75893C26.8371 4.49244 28.1696 3.97846 29.3498 3.27416C28.8929 4.70186 27.9221 5.9011 26.6468 6.66246C27.8841 6.52928 29.0834 6.18656 30.1874 5.71072C29.35 6.92895 28.3029 8.01393 27.1037 8.88961Z" fill="white" fill-opacity="0.6"/>
</g>
<defs>
<clipPath id="clip0_17_18">
<rect width="30" height="30" fill="white" transform="translate(0.1875)"/>
</clipPath>
</defs>
</svg>
