<svg width="31" height="26" viewBox="0 0 31 26" fill="none" xmlns="http://www.w3.org/2000/svg">
<path d="M27.1037 6.88961C27.1228 7.1561 27.1228 7.42264 27.1228 7.68912C27.1228 15.8172 20.9362 25.1828 9.62912 25.1828C6.14561 25.1828 2.90959 24.1738 0.1875 22.4226C0.682441 22.4797 1.15828 22.4988 1.67227 22.4988C4.54658 22.4988 7.19256 21.528 9.30551 19.8719C6.60246 19.8147 4.33723 18.0445 3.55676 15.6079C3.9375 15.665 4.31818 15.703 4.71797 15.703C5.26998 15.703 5.82205 15.6269 6.33598 15.4937C3.51873 14.9226 1.40572 12.448 1.40572 9.45942V9.3833C2.22422 9.84016 3.17607 10.1257 4.18488 10.1637C2.52879 9.05963 1.44381 7.17514 1.44381 5.04315C1.44381 3.90104 1.74832 2.85408 2.28135 1.94037C5.30801 5.67133 9.85752 8.10783 14.959 8.37438C14.8638 7.91752 14.8067 7.44168 14.8067 6.96578C14.8067 3.57742 17.5478 0.817307 20.9552 0.817307C22.7255 0.817307 24.3244 1.55969 25.4476 2.75893C26.8371 2.49244 28.1696 1.97846 29.3498 1.27416C28.8929 2.70186 27.9221 3.9011 26.6468 4.66246C27.8841 4.52928 29.0834 4.18656 30.1874 3.71072C29.35 4.92895 28.3029 6.01393 27.1037 6.88961V6.88961Z" fill="white" fill-opacity="0.6"/>
</svg>
