<svg width="30" height="30" viewBox="0 0 30 30" fill="none" xmlns="http://www.w3.org/2000/svg">
<path d="M2.5 15H9.53125M9.25 6.25H5C3.82149 6.25 3.23224 6.25 2.86611 6.61611C2.5 6.98224 2.5 7.57149 2.5 8.75V21.25C2.5 22.4285 2.5 23.0177 2.86611 23.3839C3.23224 23.75 3.82149 23.75 5 23.75H9.25C11.7353 23.75 13.75 21.7912 13.75 19.375C13.75 16.9587 11.7353 15 9.25 15C11.7353 15 13.75 13.0412 13.75 10.625C13.75 8.20875 11.7353 6.25 9.25 6.25Z" stroke="#141B34" stroke-width="1.5" stroke-linecap="round" stroke-linejoin="round"/>
<path d="M25 9.6875C25.5178 9.6875 25.9375 9.26776 25.9375 8.75C25.9375 8.23224 25.5178 7.8125 25 7.8125V9.6875ZM20 7.8125C19.4823 7.8125 19.0625 8.23224 19.0625 8.75C19.0625 9.26776 19.4823 9.6875 20 9.6875V7.8125ZM27.5 17.5V18.4375C28.0178 18.4375 28.4375 18.0178 28.4375 17.5H27.5ZM27.6426 21.7194C27.9019 21.2712 27.7488 20.6977 27.3005 20.4385C26.8524 20.1792 26.2789 20.3324 26.0196 20.7806L27.6426 21.7194ZM25 7.8125H20V9.6875H25V7.8125ZM17.5 18.4375H27.5V16.5625H17.5V18.4375ZM28.4375 17.5C28.4375 14.456 25.8043 11.5625 22.5 11.5625V13.4375C24.7186 13.4375 26.5625 15.4407 26.5625 17.5H28.4375ZM22.5 11.5625C19.1958 11.5625 16.5625 14.456 16.5625 17.5H18.4375C18.4375 15.4407 20.2814 13.4375 22.5 13.4375V11.5625ZM16.5625 17.5V18.75H18.4375V17.5H16.5625ZM16.5625 18.75C16.5625 22.0292 19.2208 24.6875 22.5 24.6875V22.8125C20.2564 22.8125 18.4375 20.9936 18.4375 18.75H16.5625ZM22.5 24.6875C24.6989 24.6875 26.6174 23.4917 27.6426 21.7194L26.0196 20.7806C25.3158 21.9973 24.0025 22.8125 22.5 22.8125V24.6875Z" fill="#141B34"/>
</svg>
