<svg width="30" height="30" viewBox="0 0 30 30" fill="none" xmlns="http://www.w3.org/2000/svg">
<path d="M15 27.5C21.9036 27.5 27.5 21.9036 27.5 15C27.5 8.09644 21.9036 2.5 15 2.5C8.09644 2.5 2.5 8.09644 2.5 15C2.5 21.9036 8.09644 27.5 15 27.5Z" stroke="#141B34" stroke-width="1.5"/>
<path d="M27.5 16.5805C26.3415 16.3632 25.15 16.25 23.934 16.25C17.2435 16.25 11.2929 19.6781 7.5 25" stroke="#141B34" stroke-width="1.5" stroke-linejoin="round"/>
<path d="M23.75 6.25C19.8381 10.8343 13.9599 13.75 7.38702 13.75C5.70546 13.75 4.06935 13.5591 2.5 13.1984" stroke="#141B34" stroke-width="1.5" stroke-linejoin="round"/>
<path d="M18.2723 27.5C18.5855 25.9825 18.75 24.4109 18.75 22.8009C18.75 14.9059 14.7929 7.93306 8.75 3.75" stroke="#141B34" stroke-width="1.5" stroke-linejoin="round"/>
</svg>
