<svg width="29" height="30" viewBox="0 0 29 30" fill="none" xmlns="http://www.w3.org/2000/svg">
<g clip-path="url(#clip0_406_444)">
<path d="M10.9043 19.2598C10.9043 20.4844 10.2656 22.4883 8.75391 22.4883C7.24219 22.4883 6.60352 20.4844 6.60352 19.2598C6.60352 18.0352 7.24219 16.0313 8.75391 16.0313C10.2656 16.0313 10.9043 18.0352 10.9043 19.2598V19.2598ZM28.125 16.3008C28.125 18.1699 27.9375 20.1504 27.0996 21.8672C24.8789 26.3555 18.7734 26.25 14.4023 26.25C9.96094 26.25 3.49219 26.4082 1.18359 21.8672C0.328125 20.168 0 18.1699 0 16.3008C0 13.8457 0.814453 11.5254 2.43164 9.64453C2.12695 8.71875 1.98047 7.74609 1.98047 6.78516C1.98047 5.52539 2.26758 4.89258 2.83594 3.75C5.49023 3.75 7.18945 4.27734 9.21094 5.85938C10.9102 5.45508 12.6562 5.27344 14.4082 5.27344C15.9902 5.27344 17.584 5.44336 19.1191 5.8125C21.1113 4.24805 22.8105 3.75 25.4355 3.75C26.0098 4.89258 26.291 5.52539 26.291 6.78516C26.291 7.74609 26.1387 8.70117 25.8398 9.60938C27.4512 11.5078 28.125 13.8457 28.125 16.3008V16.3008ZM24.3574 19.2598C24.3574 16.6875 22.793 14.4199 20.0508 14.4199C18.9434 14.4199 17.8828 14.6191 16.7695 14.7715C15.8965 14.9063 15.0234 14.959 14.127 14.959C13.2363 14.959 12.3633 14.9063 11.4844 14.7715C10.3887 14.6191 9.31641 14.4199 8.20312 14.4199C5.46094 14.4199 3.89648 16.6875 3.89648 19.2598C3.89648 24.4043 8.60742 25.1953 12.709 25.1953H15.5332C19.6523 25.1953 24.3574 24.4102 24.3574 19.2598V19.2598ZM19.5176 16.0313C18.0059 16.0313 17.3672 18.0352 17.3672 19.2598C17.3672 20.4844 18.0059 22.4883 19.5176 22.4883C21.0293 22.4883 21.668 20.4844 21.668 19.2598C21.668 18.0352 21.0293 16.0313 19.5176 16.0313Z" fill="white"/>
</g>
<defs>
<clipPath id="clip0_406_444">
<rect width="28.125" height="30" fill="white"/>
</clipPath>
</defs>
</svg>
