<svg width="27" height="30" viewBox="0 0 27 30" fill="none" xmlns="http://www.w3.org/2000/svg">
<g clip-path="url(#clip0_406_446)">
<path d="M6.00078 26.25H0.558594V8.72463H6.00078V26.25ZM3.27676 6.33401C1.53652 6.33401 0.125 4.8926 0.125 3.15237C0.125 2.31647 0.457059 1.51481 1.04813 0.923739C1.6392 0.33267 2.44086 0.000610352 3.27676 0.000610352C4.11266 0.000610352 4.91432 0.33267 5.50539 0.923739C6.09646 1.51481 6.42852 2.31647 6.42852 3.15237C6.42852 4.8926 5.01641 6.33401 3.27676 6.33401ZM26.3691 26.25H20.9387V17.7188C20.9387 15.6856 20.8977 13.0781 18.1092 13.0781C15.2797 13.0781 14.8461 15.2871 14.8461 17.5723V26.25H9.40977V8.72463H14.6293V11.1153H14.7055C15.432 9.73831 17.2068 8.28518 19.8547 8.28518C25.3625 8.28518 26.375 11.9121 26.375 16.6231V26.25H26.3691Z" fill="white"/>
</g>
<defs>
<clipPath id="clip0_406_446">
<rect width="26.25" height="30" fill="white" transform="translate(0.125)"/>
</clipPath>
</defs>
</svg>
