<svg width="30" height="30" viewBox="0 0 30 30" fill="none" xmlns="http://www.w3.org/2000/svg">
<path d="M5.625 11.875H5C3.82149 11.875 3.23224 11.875 2.86611 12.2411C2.5 12.6072 2.5 13.1965 2.5 14.375V25C2.5 26.1785 2.5 26.7677 2.86611 27.1339C3.23224 27.5 3.82149 27.5 5 27.5H5.625C6.80351 27.5 7.39276 27.5 7.75889 27.1339C8.125 26.7677 8.125 26.1785 8.125 25V14.375C8.125 13.1965 8.125 12.6072 7.75889 12.2411C7.39276 11.875 6.80351 11.875 5.625 11.875Z" stroke="#141B34" stroke-width="1.5"/>
<path d="M8.125 5.3125C8.125 6.8658 6.8658 8.125 5.3125 8.125C3.7592 8.125 2.5 6.8658 2.5 5.3125C2.5 3.7592 3.7592 2.5 5.3125 2.5C6.8658 2.5 8.125 3.7592 8.125 5.3125Z" stroke="#141B34" stroke-width="1.5"/>
<path d="M15.4075 11.875H14.375C13.1965 11.875 12.6072 11.875 12.2411 12.2411C11.875 12.6072 11.875 13.1965 11.875 14.375V25C11.875 26.1785 11.875 26.7677 12.2411 27.1339C12.6072 27.5 13.1965 27.5 14.375 27.5H15C16.1785 27.5 16.7677 27.5 17.1339 27.1339C17.5 26.7677 17.5 26.1785 17.5 25L17.5001 20.6251C17.5001 18.5541 18.1601 16.8751 20.1099 16.8751C21.0846 16.8751 21.875 17.7146 21.875 18.7501V24.3751C21.875 25.5536 21.875 26.1429 22.2411 26.509C22.6071 26.8751 23.1965 26.8751 24.375 26.8751H24.9984C26.1766 26.8751 26.7657 26.8751 27.1319 26.5091C27.498 26.1431 27.4981 25.554 27.4984 24.3757L27.5001 17.5002C27.5001 14.3938 24.5455 11.8753 21.621 11.8753C19.9561 11.8753 18.4709 12.6914 17.5001 13.9675C17.5 13.1799 17.5 12.7861 17.329 12.4937C17.2206 12.3086 17.0664 12.1544 16.8813 12.0461C16.5889 11.875 16.1951 11.875 15.4075 11.875Z" stroke="#141B34" stroke-width="1.5" stroke-linejoin="round"/>
</svg>
