<svg width="154" height="100" viewBox="0 0 154 100" fill="none" xmlns="http://www.w3.org/2000/svg">
<path d="M32.0293 94.7638C46.3911 94.7638 58.0337 83.1329 58.0337 68.7854C58.0337 54.4379 46.3911 42.807 32.0293 42.807C17.6675 42.807 6.0249 54.4379 6.0249 68.7854C6.0249 83.1329 17.6675 94.7638 32.0293 94.7638Z" fill="#60C0EC"/>
<path d="M32.0293 99.4872C15.0839 99.4872 1.29681 85.7139 1.29681 68.7854C1.29681 51.857 15.0839 38.0837 32.0293 38.0837C48.9747 38.0837 62.7617 51.857 62.7617 68.7854C62.7617 85.7139 48.9747 99.4872 32.0293 99.4872ZM32.0293 47.5304C20.2989 47.5304 10.753 57.0668 10.753 68.7854C10.753 80.5041 20.2989 90.0405 32.0293 90.0405C43.7596 90.0405 53.3056 80.5041 53.3056 68.7854C53.3056 57.0668 43.7596 47.5304 32.0293 47.5304Z" fill="#60C0EC"/>
<path d="M112.406 94.7638C126.768 94.7638 138.411 83.1329 138.411 68.7854C138.411 54.4379 126.768 42.807 112.406 42.807C98.0447 42.807 86.4021 54.4379 86.4021 68.7854C86.4021 83.1329 98.0447 94.7638 112.406 94.7638Z" fill="#60C0EC"/>
<path d="M112.406 99.4872C95.4611 99.4872 81.674 85.7139 81.674 68.7854C81.674 51.857 95.4611 38.0837 112.406 38.0837C129.352 38.0837 143.139 51.857 143.139 68.7854C143.139 85.7139 129.352 99.4872 112.406 99.4872ZM112.406 47.5304C100.676 47.5304 91.1302 57.0668 91.1302 68.7854C91.1302 80.5041 100.676 90.0405 112.406 90.0405C124.137 90.0405 133.683 80.5041 133.683 68.7854C133.683 57.0668 124.137 47.5304 112.406 47.5304Z" fill="#60C0EC"/>
<path d="M6.02488 71.1471C3.41026 71.1471 1.29681 69.0358 1.29681 66.4238C1.29681 29.9595 30.9891 0.296906 67.4898 0.296906C70.1044 0.296906 72.2179 2.40824 72.2179 5.02025C72.2179 7.63226 70.1044 9.7436 67.4898 9.7436C36.2042 9.7436 10.753 35.1694 10.753 66.4238C10.753 69.0358 8.63951 71.1471 6.02488 71.1471Z" fill="#60C0EC"/>
<path d="M86.4021 71.1471C83.7875 71.1471 81.674 69.0358 81.674 66.4238C81.674 29.9595 111.366 0.296906 147.867 0.296906C150.482 0.296906 152.595 2.40824 152.595 5.02025C152.595 7.63226 150.482 9.7436 147.867 9.7436C116.581 9.7436 91.1302 35.1694 91.1302 66.4238C91.1302 69.0358 89.0167 71.1471 86.4021 71.1471Z" fill="#60C0EC"/>
</svg>
