<svg width="2331" height="250" viewBox="0 0 2331 250" fill="none" xmlns="http://www.w3.org/2000/svg">
<g clip-path="url(#clip0_424_451)">
<circle cx="2206" cy="125" r="125" transform="rotate(180 2206 125)" fill="#FFCDB8"/>
<circle cx="1831" cy="125" r="125" transform="rotate(180 1831 125)" fill="#FFECB1"/>
<circle cx="978" cy="125" r="125" transform="rotate(180 978 125)" fill="#FFE5E1"/>
<circle cx="1353" cy="125" r="125" transform="rotate(180 1353 125)" fill="#C8E4FF"/>
<path d="M1456 250C1456 111.929 1567.93 0 1706 0V250L1456 250Z" fill="#E0DBFC"/>
<circle cx="500" cy="125" r="125" transform="rotate(180 500 125)" fill="#E0DBFC"/>
<path d="M603 250C603 111.929 714.929 0 853 0L853 250L603 250Z" fill="#FFECB1"/>
<path d="M1956 0C2025.04 0 2081 55.9644 2081 125C2081 194.036 2025.04 250 1956 250V0Z" fill="#FCE2DE"/>
<path d="M1103 0C1172.04 0 1228 55.9644 1228 125C1228 194.036 1172.04 250 1103 250V0Z" fill="#FFCDB8"/>
<circle cx="125" cy="125" r="125" transform="rotate(180 125 125)" fill="#FFCDB8"/>
<path d="M250 0C319.036 0 375 55.9644 375 125C375 194.036 319.036 250 250 250L250 0Z" fill="#C8E4FF"/>
</g>
<defs>
<clipPath id="clip0_424_451">
<rect width="2331" height="250" fill="white" transform="matrix(-1 0 0 -1 2331 250)"/>
</clipPath>
</defs>
</svg>
