<svg width="2331" height="250" viewBox="0 0 2331 250" fill="none" xmlns="http://www.w3.org/2000/svg">
<g clip-path="url(#clip0_305_8)">
<circle cx="125" cy="125" r="125" fill="#FFCDB8"/>
<circle cx="500" cy="125" r="125" fill="#FFECB1"/>
<circle cx="1353" cy="125" r="125" fill="#FFE5E1"/>
<circle cx="978" cy="125" r="125" fill="#C8E4FF"/>
<path d="M875 0C875 138.071 763.071 250 625 250V0H875Z" fill="#E0DBFC"/>
<circle cx="1831" cy="125" r="125" fill="#E0DBFC"/>
<path d="M1728 0C1728 138.071 1616.07 250 1478 250V0H1728Z" fill="#FFECB1"/>
<path d="M375 250C305.964 250 250 194.036 250 125C250 55.9644 305.964 0 375 0V250Z" fill="#FCE2DE"/>
<path d="M1228 250C1158.96 250 1103 194.036 1103 125C1103 55.9644 1158.96 0 1228 0V250Z" fill="#FFCDB8"/>
<circle cx="2206" cy="125" r="125" fill="#FFCDB8"/>
<path d="M2081 250C2011.96 250 1956 194.036 1956 125C1956 55.9644 2011.96 0 2081 0V250Z" fill="#C8E4FF"/>
</g>
<defs>
<clipPath id="clip0_305_8">
<rect width="2331" height="250" fill="white"/>
</clipPath>
</defs>
</svg>
