<svg width="31" height="30" viewBox="0 0 31 30" fill="none" xmlns="http://www.w3.org/2000/svg">
<g clip-path="url(#clip0_406_448)">
<path d="M27.2912 8.88963C27.3103 9.15611 27.3103 9.42265 27.3103 9.68914C27.3103 17.8173 21.1237 27.1828 9.81662 27.1828C6.33311 27.1828 3.09709 26.1738 0.375 24.4227C0.869941 24.4797 1.34578 24.4988 1.85977 24.4988C4.73408 24.4988 7.38006 23.528 9.49301 21.8719C6.78996 21.8148 4.52473 20.0445 3.74426 17.6079C4.125 17.665 4.50568 17.7031 4.90547 17.7031C5.45748 17.7031 6.00955 17.6269 6.52348 17.4937C3.70623 16.9226 1.59322 14.448 1.59322 11.4594V11.3833C2.41172 11.8402 3.36357 12.1257 4.37238 12.1637C2.71629 11.0596 1.63131 9.17515 1.63131 7.04316C1.63131 5.90105 1.93582 4.8541 2.46885 3.94039C5.49551 7.67134 10.045 10.1078 15.1465 10.3744C15.0513 9.91754 14.9942 9.4417 14.9942 8.9658C14.9942 5.57744 17.7353 2.81732 21.1427 2.81732C22.913 2.81732 24.5119 3.5597 25.6351 4.75894C27.0246 4.49246 28.3571 3.97847 29.5373 3.27418C29.0804 4.70187 28.1096 5.90111 26.8343 6.66248C28.0716 6.52929 29.2709 6.18658 30.3749 5.71074C29.5375 6.92896 28.4904 8.01394 27.2912 8.88963V8.88963Z" fill="white"/>
</g>
<defs>
<clipPath id="clip0_406_448">
<rect width="30" height="30" fill="white" transform="translate(0.375)"/>
</clipPath>
</defs>
</svg>
