<svg width="30" height="30" viewBox="0 0 30 30" fill="none" xmlns="http://www.w3.org/2000/svg">
<path d="M15 25.625C17.2621 25.625 19.4314 25.4015 21.4417 24.9917C23.9529 24.4799 25.2085 24.2239 26.3542 22.7507C27.5 21.2776 27.5 19.5866 27.5 16.2044V13.7956C27.5 10.4134 27.5 8.72234 26.3542 7.24921C25.2085 5.7761 23.9529 5.52016 21.4417 5.00827C19.4314 4.59846 17.2621 4.375 15 4.375C12.7379 4.375 10.5686 4.59846 8.5582 5.00827C6.04707 5.52016 4.79151 5.7761 3.64575 7.24921C2.5 8.72234 2.5 10.4134 2.5 13.7956V16.2044C2.5 19.5866 2.5 21.2776 3.64575 22.7507C4.79151 24.2239 6.04707 24.4799 8.5582 24.9917C10.5686 25.4015 12.7379 25.625 15 25.625Z" stroke="#141B34" stroke-width="1.5"/>
<path d="M19.9526 15.3911C19.7671 16.1484 18.7801 16.6922 16.8061 17.7801C14.659 18.9631 13.5855 19.5547 12.716 19.3269C12.4215 19.2496 12.1502 19.1139 11.9225 18.9297C11.25 18.3861 11.25 17.2574 11.25 15C11.25 12.7426 11.25 11.6139 11.9225 11.0702C12.1502 10.8861 12.4215 10.7504 12.716 10.6732C13.5855 10.4453 14.659 11.0368 16.8061 12.2199C18.7801 13.3077 19.7671 13.8516 19.9526 14.6089C20.0157 14.8666 20.0157 15.1334 19.9526 15.3911Z" stroke="#141B34" stroke-width="1.5" stroke-linejoin="round"/>
</svg>
